
<svg width="51px" height="20px" viewBox="0 0 51 20" version="1.1" xmlns="http://www.w3.org/2000/svg" xmlns:xlink="http://www.w3.org/1999/xlink">
    <g id="Final" stroke="none" stroke-width="1" fill="none" fill-rule="evenodd">
        <g id="Hire" transform="translate(-35.000000, -25.000000)" fill="#FFFFFF" fill-rule="nonzero">
            <g id="Side-Bar">
                <g id="logo" transform="translate(35.000000, 25.000000)">
                    <path d="M12.9151272,12.9266544 L12.9151272,19.384218 L10.333024,19.384218 L10.333024,18.0925571 C9.25361463,18.9036069 7.91173704,19.384218 6.45756358,19.384218 C2.89103352,19.384218 7.10542736e-15,16.4931845 7.10542736e-15,12.9266544 C7.10542736e-15,9.36012436 2.89103352,6.46909084 6.45756358,6.46909084 C6.54732516,6.46909084 6.63664418,6.4709487 6.72548714,6.4746258 C8.07638269,6.52967778 9.32023745,6.99976116 10.333024,7.76075172 L10.333024,6.46909084 L12.9151272,6.46909084 L12.9151272,12.9266544 Z M2.58210316,12.9266544 C2.58210316,15.0638061 4.32041191,16.8021148 6.45756358,16.8021148 C8.59471526,16.8021148 10.333024,15.0638061 10.333024,12.9266544 C10.333024,10.7895027 8.59471526,9.051194 6.45756358,9.051194 C4.32041191,9.051194 2.58210316,10.7895027 2.58210316,12.9266544 Z M18.2711032,1.77001953e-06 L18.2711032,6.47370306 L22.1442572,6.47370306 L22.1442572,9.05580623 L18.2711032,9.05580623 L18.2711032,12.9289603 C18.2711032,15.068417 20.004801,16.8021148 22.1442581,16.8021148 L22.1442581,19.384218 C18.5788808,19.384218 15.689,16.4943372 15.689,12.9289599 L15.689,-3.55271368e-15 L18.2711032,-3.55271368e-15 Z M28.7830018,9.05926308 C28.0706181,9.05926308 27.4919504,9.63793069 27.4919504,10.3491617 C27.4919504,11.0603927 28.0706181,11.6390603 28.7818491,11.6390603 L31.6440645,11.6390603 C31.9034276,11.6390603 32.1570272,11.665573 32.4025572,11.7139875 C34.1789059,12.066721 35.5172194,13.6321209 35.5172194,15.5110621 C35.5172194,17.6493665 33.7835216,19.3830644 31.6452172,19.3830644 L25.821652,19.3830644 L25.821652,16.8009612 L31.6452172,16.8009612 C32.3564482,16.8009612 32.9351158,16.2222936 32.9351158,15.5110626 C32.9351158,14.7998316 32.3564482,14.221164 31.6452172,14.221164 L28.7841545,14.221164 C28.5247914,14.221164 28.2711918,14.1946513 28.0256618,14.1462368 C26.2493131,13.7935033 24.9109996,12.2281034 24.9109996,10.3491622 C24.9109996,8.21085776 26.6446974,6.47715991 28.7830018,6.47715991 L34.606567,6.47715991 L34.606567,9.05926308 L28.7830018,9.05926308 Z M51.0233711,6.44608279 L46.2545486,12.9278536 L51.0233711,19.4084717 L47.8176436,19.4084717 L44.6522619,15.1053507 L41.4857271,19.4084717 L38.28,19.4084717 L43.048822,12.9278536 L38.28,6.44608279 L41.4857271,6.44608279 L44.6522619,10.7492038 L47.8187968,6.44608279 L51.0233711,6.44608279 Z"></path>
                </g>
            </g>
        </g>
    </g>
</svg>
