
<svg width="64px" height="38px" viewBox="0 0 64 38" version="1.1" xmlns="http://www.w3.org/2000/svg" xmlns:xlink="http://www.w3.org/1999/xlink">
    <g id="Page-1" stroke="none" stroke-width="1" fill="none" fill-rule="evenodd">
        <path d="M9.31216931,11.3446809 C9.88124917,11.3446809 10.3048193,11.4491715 10.5828924,11.658156 C10.8609655,11.8671405 11,12.1990521 11,12.6539007 C11,13.1210425 10.8641989,13.4621739 10.5925926,13.677305 C10.3209863,13.8924361 9.8941828,14 9.31216931,14 L1.55202822,14 C1.07348379,14 0.695180697,13.8647768 0.417107584,13.5943262 C0.139034471,13.3238757 0,12.9858176 0,12.5801418 C0,12.1744661 0.14873455,11.7749429 0.446208113,11.3815603 L6.42151675,3.65531915 L1.72663139,3.65531915 C1.1446179,3.65531915 0.714581049,3.54775521 0.436507937,3.33262411 C0.158434824,3.11749301 0.0194003527,2.7886547 0.0194003527,2.34609929 C0.0194003527,1.87895748 0.158434824,1.53782613 0.436507937,1.32269504 C0.714581049,1.10756394 1.1446179,1 1.72663139,1 L9.17636684,1 C9.64197764,1 10.013814,1.13214998 10.2918871,1.3964539 C10.5699602,1.66075782 10.7089947,1.99574265 10.7089947,2.40141844 C10.7089947,2.81938743 10.5602602,3.22505713 10.2627866,3.61843972 L4.28747795,11.3446809 L9.31216931,11.3446809 Z M9.31216931,35.3446809 C9.88124917,35.3446809 10.3048193,35.4491715 10.5828924,35.658156 C10.8609655,35.8671405 11,36.1990521 11,36.6539007 C11,37.1210425 10.8641989,37.4621739 10.5925926,37.677305 C10.3209863,37.8924361 9.8941828,38 9.31216931,38 L1.55202822,38 C1.07348379,38 0.695180697,37.8647768 0.417107584,37.5943262 C0.139034471,37.3238757 0,36.9858176 0,36.5801418 C0,36.1744661 0.14873455,35.7749429 0.446208113,35.3815603 L6.42151675,27.6553191 L1.72663139,27.6553191 C1.1446179,27.6553191 0.714581049,27.5477552 0.436507937,27.3326241 C0.158434824,27.117493 0.0194003527,26.7886547 0.0194003527,26.3460993 C0.0194003527,25.8789575 0.158434824,25.5378261 0.436507937,25.322695 C0.714581049,25.1075639 1.1446179,25 1.72663139,25 L9.17636684,25 C9.64197764,25 10.013814,25.13215 10.2918871,25.3964539 C10.5699602,25.6607578 10.7089947,25.9957427 10.7089947,26.4014184 C10.7089947,26.8193874 10.5602602,27.2250571 10.2627866,27.6184397 L4.28747795,35.3446809 L9.31216931,35.3446809 Z M13.5,14 C13.0730316,14 12.7162936,13.8654869 12.4297753,13.5964567 C12.143257,13.3274265 12,12.9238872 12,12.3858268 L12,5.61417323 C12,5.0761128 12.143257,4.67257352 12.4297753,4.40354331 C12.7162936,4.13451309 13.0730316,4 13.5,4 C13.9269684,4 14.2837064,4.13451309 14.5702247,4.40354331 C14.856743,4.67257352 15,5.0761128 15,5.61417323 L15,12.3858268 C15,12.9238872 14.856743,13.3274265 14.5702247,13.5964567 C14.2837064,13.8654869 13.9269684,14 13.5,14 Z M13.5,3 C13.040814,3 12.6760218,2.86257447 12.4056122,2.5877193 C12.1352027,2.31286412 12,1.9473707 12,1.49122807 C12,1.03508544 12.1352027,0.672515965 12.4056122,0.403508772 C12.6760218,0.134501579 13.040814,0 13.5,0 C13.9489818,0 14.3112231,0.134501579 14.5867347,0.403508772 C14.8622463,0.672515965 15,1.03508544 15,1.49122807 C15,1.9473707 14.8647973,2.31286412 14.5943878,2.5877193 C14.3239782,2.86257447 13.959186,3 13.5,3 Z M23.0036832,4 C23.7771678,4 24.4677686,4.20440047 25.0755064,4.61320755 C25.6832443,5.02201462 26.1559222,5.59748057 26.4935543,6.33962264 C26.8311865,7.08176472 27,7.93081283 27,8.88679245 C27,9.84277208 26.8311865,10.6823863 26.4935543,11.4056604 C26.1559222,12.1289344 25.6863136,12.6855326 25.0847145,13.0754717 C24.4831155,13.4654108 23.7894453,13.6603774 23.0036832,13.6603774 C22.4266392,13.6603774 21.8956439,13.5408817 21.4106814,13.3018868 C20.9257189,13.0628919 20.5481904,12.7421404 20.2780847,12.3396226 L20.2780847,15.5471698 C20.2780847,15.9874236 20.1307565,16.3396213 19.8360958,16.6037736 C19.541435,16.8679258 19.1546985,17 18.6758748,17 C18.1724959,17 17.7673435,16.858492 17.4604052,16.5754717 C17.1534669,16.2924514 17,15.9308198 17,15.490566 L17,5.58490566 C17,5.11949453 17.1442588,4.74528443 17.4327808,4.46226415 C17.7213029,4.17924387 18.1111087,4.03773585 18.6022099,4.03773585 C19.0687562,4.03773585 19.4462846,4.16352075 19.7348066,4.41509434 C20.0233286,4.66666792 20.1860035,4.99999792 20.2228361,5.41509434 C20.4806643,4.97484057 20.8581927,4.62893208 21.3554328,4.37735849 C21.8526728,4.12578491 22.4020842,4 23.0036832,4 Z M22.0092081,11.1509434 C22.5739746,11.1509434 23.0067511,10.9559768 23.3075506,10.5660377 C23.6083502,10.1760987 23.7587477,9.61635585 23.7587477,8.88679245 C23.7587477,8.11949302 23.6052808,7.53144858 23.2983425,7.12264151 C22.9914042,6.71383443 22.5555584,6.50943396 21.9907919,6.50943396 C21.4260254,6.50943396 20.9901796,6.71068981 20.6832413,7.11320755 C20.3763029,7.51572528 20.2228361,8.09433585 20.2228361,8.8490566 C20.2228361,9.59119868 20.3763029,10.1603754 20.6832413,10.5566038 C20.9901796,10.9528322 21.4321641,11.1509434 22.0092081,11.1509434 Z M34,14 C33.4766329,14 33.0560764,13.8389687 32.7383178,13.5169014 C32.4205592,13.1948341 32.2616822,12.7643219 32.2616822,12.2253521 L32.2616822,2.93802817 L29.6261682,2.93802817 C29.0778789,2.93802817 28.6697833,2.81643314 28.4018692,2.57323944 C28.133955,2.33004573 28,1.95868794 28,1.45915493 C28,0.959621915 28.133955,0.591550479 28.4018692,0.354929577 C28.6697833,0.118308676 29.0778789,0 29.6261682,0 L38.3738318,0 C38.9221211,0 39.3302167,0.118308676 39.5981308,0.354929577 C39.866045,0.591550479 40,0.959621915 40,1.45915493 C40,1.95868794 39.866045,2.33004573 39.5981308,2.57323944 C39.3302167,2.81643314 38.9221211,2.93802817 38.3738318,2.93802817 L35.7383178,2.93802817 L35.7383178,12.2253521 C35.7383178,12.7643219 35.5794408,13.1948341 35.2616822,13.5169014 C34.9439236,13.8389687 34.5233671,14 34,14 Z M18,38 C17.4766329,38 17.0560764,37.8389687 16.7383178,37.5169014 C16.4205592,37.1948341 16.2616822,36.7643219 16.2616822,36.2253521 L16.2616822,26.9380282 L13.6261682,26.9380282 C13.0778789,26.9380282 12.6697833,26.8164331 12.4018692,26.5732394 C12.133955,26.3300457 12,25.9586879 12,25.4591549 C12,24.9596219 12.133955,24.5915505 12.4018692,24.3549296 C12.6697833,24.1183087 13.0778789,24 13.6261682,24 L22.3738318,24 C22.9221211,24 23.3302167,24.1183087 23.5981308,24.3549296 C23.866045,24.5915505 24,24.9596219 24,25.4591549 C24,25.9586879 23.866045,26.3300457 23.5981308,26.5732394 C23.3302167,26.8164331 22.9221211,26.9380282 22.3738318,26.9380282 L19.7383178,26.9380282 L19.7383178,36.2253521 C19.7383178,36.7643219 19.5794408,37.1948341 19.2616822,37.5169014 C18.9439236,37.8389687 18.5233671,38 18,38 Z M45.6580311,4.00823359 C46.0690867,3.96889573 46.3955083,4.07051701 46.6373057,4.31310047 C46.8791031,4.55568394 47,4.91299748 47,5.38505179 C47,5.90955659 46.8881704,6.28981686 46.6645078,6.52584402 C46.4408452,6.76187118 46.038863,6.91266405 45.4585492,6.97822715 L44.9145078,7.03723364 C44.3100142,7.11590936 43.8778079,7.32243003 43.6178756,7.65680183 C43.3579434,7.99117364 43.2279793,8.44683035 43.2279793,9.02378562 L43.2279793,12.3871558 C43.2279793,12.9247732 43.0738357,13.3279802 42.765544,13.596789 C42.4572523,13.8655977 42.0734047,14 41.6139896,14 C41.1545746,14 40.7707269,13.8655977 40.4624352,13.596789 C40.1541435,13.3279802 40,12.9247732 40,12.3871558 L40,5.58174011 C40,5.08346055 40.1541435,4.69664407 40.4624352,4.42127905 C40.7707269,4.14591403 41.1424849,4.00823359 41.5777202,4.00823359 C42.0250454,4.00823359 42.3847137,4.13935782 42.6567358,4.40161022 C42.9287578,4.66386261 43.0647668,5.03101047 43.0647668,5.50306478 L43.0647668,5.87677258 C43.2582048,5.2998173 43.5755591,4.85399492 44.0168394,4.53929204 C44.4581197,4.22458916 44.9205503,4.05412766 45.4041451,4.02790242 L45.6580311,4.00823359 Z M49.5,14 C49.0730316,14 48.7162936,13.8654869 48.4297753,13.5964567 C48.143257,13.3274265 48,12.9238872 48,12.3858268 L48,5.61417323 C48,5.0761128 48.143257,4.67257352 48.4297753,4.40354331 C48.7162936,4.13451309 49.0730316,4 49.5,4 C49.9269684,4 50.2837064,4.13451309 50.5702247,4.40354331 C50.856743,4.67257352 51,5.0761128 51,5.61417323 L51,12.3858268 C51,12.9238872 50.856743,13.3274265 50.5702247,13.5964567 C50.2837064,13.8654869 49.9269684,14 49.5,14 Z M49.5,3 C49.040814,3 48.6760218,2.86257447 48.4056122,2.5877193 C48.1352027,2.31286412 48,1.9473707 48,1.49122807 C48,1.03508544 48.1352027,0.672515965 48.4056122,0.403508772 C48.6760218,0.134501579 49.040814,0 49.5,0 C49.9489818,0 50.3112231,0.134501579 50.5867347,0.403508772 C50.8622463,0.672515965 51,1.03508544 51,1.49122807 C51,1.9473707 50.8647973,2.31286412 50.5943878,2.5877193 C50.3239782,2.86257447 49.959186,3 49.5,3 Z M60.0036832,4 C60.7771678,4 61.4677686,4.20440047 62.0755064,4.61320755 C62.6832443,5.02201462 63.1559222,5.59748057 63.4935543,6.33962264 C63.8311865,7.08176472 64,7.93081283 64,8.88679245 C64,9.84277208 63.8311865,10.6823863 63.4935543,11.4056604 C63.1559222,12.1289344 62.6863136,12.6855326 62.0847145,13.0754717 C61.4831155,13.4654108 60.7894453,13.6603774 60.0036832,13.6603774 C59.4266392,13.6603774 58.8956439,13.5408817 58.4106814,13.3018868 C57.9257189,13.0628919 57.5481904,12.7421404 57.2780847,12.3396226 L57.2780847,15.5471698 C57.2780847,15.9874236 57.1307565,16.3396213 56.8360958,16.6037736 C56.541435,16.8679258 56.1546985,17 55.6758748,17 C55.1724959,17 54.7673435,16.858492 54.4604052,16.5754717 C54.1534669,16.2924514 54,15.9308198 54,15.490566 L54,5.58490566 C54,5.11949453 54.1442588,4.74528443 54.4327808,4.46226415 C54.7213029,4.17924387 55.1111087,4.03773585 55.6022099,4.03773585 C56.0687562,4.03773585 56.4462846,4.16352075 56.7348066,4.41509434 C57.0233286,4.66666792 57.1860035,4.99999792 57.2228361,5.41509434 C57.4806643,4.97484057 57.8581927,4.62893208 58.3554328,4.37735849 C58.8526728,4.12578491 59.4020842,4 60.0036832,4 Z M59.0092081,11.1509434 C59.5739746,11.1509434 60.0067511,10.9559768 60.3075506,10.5660377 C60.6083502,10.1760987 60.7587477,9.61635585 60.7587477,8.88679245 C60.7587477,8.11949302 60.6052808,7.53144858 60.2983425,7.12264151 C59.9914042,6.71383443 59.5555584,6.50943396 58.9907919,6.50943396 C58.4260254,6.50943396 57.9901796,6.71068981 57.6832413,7.11320755 C57.3763029,7.51572528 57.2228361,8.09433585 57.2228361,8.8490566 C57.2228361,9.59119868 57.3763029,10.1603754 57.6832413,10.5566038 C57.9901796,10.9528322 58.4321641,11.1509434 59.0092081,11.1509434 Z" id="ATSx" fill="#6672FB"></path>
    </g>
</svg>
